<svg width="128" height="38" fill="none" xmlns="http://www.w3.org/2000/svg"><path d="M23.952 36.96v-26.4H0v26.4h6.864V17.136h10.224V36.96h6.864zM40.794 9.984c-7.776 0-13.632 5.952-13.632 13.824 0 7.824 5.808 13.776 13.824 13.776 6.432 0 12.144-3.84 13.248-10.32H47.13c-.624 2.88-3.168 4.464-6.096 4.464-3.84 0-6.624-2.592-6.864-6.672h20.112c.096-.816.192-1.872 0-3.264-.816-7.2-6.672-11.808-13.488-11.808zm.096 5.664c2.784 0 5.568 1.584 6.192 4.848H34.65c.816-2.976 3.168-4.848 6.24-4.848zm32.664 1.488V10.56H57.426v26.4h6.864V17.136h9.264zm9.112 3.888V0h-6.864v36.96h6.864V25.968L91.93 36.96h8.688l-11.52-13.68 10.609-12.72h-8.592l-8.448 10.464z" fill="#0F051D"/><path d="M113.46 9.984c-7.584 0-13.776 5.856-13.776 13.776s6.096 13.824 13.776 13.824 13.728-5.856 13.728-13.776c0-7.968-6.144-13.824-13.728-13.824zm0 6.528c3.84 0 6.816 2.976 6.816 7.296s-2.976 7.248-6.816 7.248c-3.792 0-6.816-2.928-6.816-7.248 0-4.368 2.976-7.296 6.816-7.296z" fill="#0F051D"/></svg>